<svg xmlns="http://www.w3.org/2000/svg" xmlns:xlink="http://www.w3.org/1999/xlink" id="processonSvg1000" viewBox="88.42964642256887 60.26769439860455 1614.3408823170646 1362.8275436966348" width="1614.3408823170646" height="1362.8275436966348"><defs id="ProcessOnDefs1001"><marker id="ProcessOnMarker1054" markerUnits="userSpaceOnUse" orient="auto" markerWidth="16.23606797749979" markerHeight="10.550836550532098" viewBox="-1.0 -1.3763819204711736 16.23606797749979 10.550836550532098" refX="-1.0" refY="3.8990363547948754"><path id="ProcessOnPath1055" d="M12.0 3.8990363547948754L0.0 7.798072709589751V0.0Z" stroke="#323232" stroke-width="2.0" fill="#323232" transform="matrix(1.0,0.0,0.0,1.0,0.0,0.0)"/></marker><marker id="ProcessOnMarker1058" markerUnits="userSpaceOnUse" orient="auto" markerWidth="16.23606797749979" markerHeight="10.550836550532098" viewBox="-1.0 -1.3763819204711736 16.23606797749979 10.550836550532098" refX="-1.0" refY="3.8990363547948754"><path id="ProcessOnPath1059" d="M12.0 3.8990363547948754L0.0 7.798072709589751V0.0Z" stroke="#323232" stroke-width="2.0" fill="#323232" transform="matrix(1.0,0.0,0.0,1.0,0.0,0.0)"/></marker><marker id="ProcessOnMarker1078" markerUnits="userSpaceOnUse" orient="auto" markerWidth="16.23606797749979" markerHeight="10.550836550532098" viewBox="-1.0 -1.3763819204711736 16.23606797749979 10.550836550532098" refX="-1.0" refY="3.8990363547948754"><path id="ProcessOnPath1079" d="M12.0 3.8990363547948754L0.0 7.798072709589751V0.0Z" stroke="#454545" stroke-width="2.0" fill="#454545" transform="matrix(1.0,0.0,0.0,1.0,0.0,0.0)"/></marker><marker id="ProcessOnMarker1104" markerUnits="userSpaceOnUse" orient="auto" markerWidth="16.23606797749979" markerHeight="10.550836550532098" viewBox="-1.0 -1.3763819204711736 16.23606797749979 10.550836550532098" refX="-1.0" refY="3.8990363547948754"><path id="ProcessOnPath1105" d="M12.0 3.8990363547948754L0.0 7.798072709589751V0.0Z" stroke="#5c5c5c" stroke-width="2.0" fill="#5c5c5c" transform="matrix(1.0,0.0,0.0,1.0,0.0,0.0)"/></marker><marker id="ProcessOnMarker1108" markerUnits="userSpaceOnUse" orient="auto" markerWidth="16.23606797749979" markerHeight="10.550836550532098" viewBox="-1.0 -1.3763819204711736 16.23606797749979 10.550836550532098" refX="-1.0" refY="3.8990363547948754"><path id="ProcessOnPath1109" d="M12.0 3.8990363547948754L0.0 7.798072709589751V0.0Z" stroke="#454545" stroke-width="2.0" fill="#454545" transform="matrix(1.0,0.0,0.0,1.0,0.0,0.0)"/></marker><marker id="ProcessOnMarker1112" markerUnits="userSpaceOnUse" orient="auto" markerWidth="16.23606797749979" markerHeight="10.550836550532098" viewBox="-1.0 -1.3763819204711736 16.23606797749979 10.550836550532098" refX="-1.0" refY="3.8990363547948754"><path id="ProcessOnPath1113" d="M12.0 3.8990363547948754L0.0 7.798072709589751V0.0Z" stroke="#33ff33" stroke-width="2.0" fill="#33ff33" transform="matrix(1.0,0.0,0.0,1.0,0.0,0.0)"/></marker><marker id="ProcessOnMarker1116" markerUnits="userSpaceOnUse" orient="auto" markerWidth="16.23606797749979" markerHeight="10.550836550532098" viewBox="-1.0 -1.3763819204711736 16.23606797749979 10.550836550532098" refX="-1.0" refY="3.8990363547948754"><path id="ProcessOnPath1117" d="M12.0 3.8990363547948754L0.0 7.798072709589751V0.0Z" stroke="#ff3333" stroke-width="2.0" fill="#ff3333" transform="matrix(1.0,0.0,0.0,1.0,0.0,0.0)"/></marker><marker id="ProcessOnMarker1134" markerUnits="userSpaceOnUse" orient="auto" markerWidth="22.590169943749473" markerHeight="14.679982311945619" viewBox="-2.5 -3.440954801177934 22.590169943749473 14.679982311945619" refX="-2.5" refY="3.8990363547948754"><path id="ProcessOnPath1135" d="M12.0 3.8990363547948754L0.0 7.798072709589751V0.0Z" stroke="#454545" stroke-width="5.0" fill="#454545" transform="matrix(1.0,0.0,0.0,1.0,0.0,0.0)"/></marker><marker id="ProcessOnMarker1138" markerUnits="userSpaceOnUse" orient="auto" markerWidth="16.23606797749979" markerHeight="10.550836550532098" viewBox="-1.0 -1.3763819204711736 16.23606797749979 10.550836550532098" refX="-1.0" refY="3.8990363547948754"><path id="ProcessOnPath1139" d="M12.0 3.8990363547948754L0.0 7.798072709589751V0.0Z" stroke="#171717" stroke-width="2.0" fill="#171717" transform="matrix(1.0,0.0,0.0,1.0,0.0,0.0)"/></marker><marker id="ProcessOnMarker1172" markerUnits="userSpaceOnUse" orient="auto" markerWidth="16.23606797749979" markerHeight="10.550836550532098" viewBox="-1.0 -1.3763819204711736 16.23606797749979 10.550836550532098" refX="-1.0" refY="3.8990363547948754"><path id="ProcessOnPath1173" d="M12.0 3.8990363547948754L0.0 7.798072709589751V0.0Z" stroke="#ffffff" stroke-width="2.0" fill="#ffffff" transform="matrix(1.0,0.0,0.0,1.0,0.0,0.0)"/></marker><marker id="ProcessOnMarker1179" markerUnits="userSpaceOnUse" orient="auto" markerWidth="16.23606797749979" markerHeight="10.550836550532098" viewBox="-1.0 -1.3763819204711736 16.23606797749979 10.550836550532098" refX="-1.0" refY="3.8990363547948754"><path id="ProcessOnPath1180" d="M12.0 3.8990363547948754L0.0 7.798072709589751V0.0Z" stroke="#323232" stroke-width="2.0" fill="#323232" transform="matrix(1.0,0.0,0.0,1.0,0.0,0.0)"/></marker><marker id="ProcessOnMarker1237" markerUnits="userSpaceOnUse" orient="auto" markerWidth="16.23606797749979" markerHeight="10.550836550532098" viewBox="-1.0 -1.3763819204711736 16.23606797749979 10.550836550532098" refX="-1.0" refY="3.8990363547948754"><path id="ProcessOnPath1238" d="M12.0 3.8990363547948754L0.0 7.798072709589751V0.0Z" stroke="#323232" stroke-width="2.0" fill="#323232" transform="matrix(1.0,0.0,0.0,1.0,0.0,0.0)"/></marker></defs><g id="ProcessOnG1002"><path id="ProcessOnPath1003" d="M88.42964642256887 60.26769439860455H1702.7705287396334V1423.0952380952394H88.4296464225688V60.26769439860459Z" fill="#343643"/><g id="ProcessOnG1004"><g id="ProcessOnG1005" transform="matrix(1.0,0.0,0.0,1.0,108.69794437917929,611.0952380952396)" opacity="1.0"><path id="ProcessOnPath1006" d="M0.0 4.0Q0.0 0.0 4.0 0.0L1568.7698315599132 0.0Q1572.7698315599132 0.0 1572.7698315599132 4.0L1572.7698315599132 788.0Q1572.7698315599132 792.0 1568.7698315599132 792.0L4.0 792.0Q0.0 792.0 0.0 788.0Z" stroke="#3e404f" stroke-width="1.0" stroke-dasharray="none" opacity="1.0" fill="#ccffff"/></g><g id="ProcessOnG1007" transform="matrix(1.0,0.0,0.0,1.0,951.0300361102015,825.0247975251822)" opacity="1.0"><path id="ProcessOnPath1008" d="M0.0 4.0Q0.0 0.0 4.0 0.0L378.5909953987192 0.0Q382.5909953987192 0.0 382.5909953987192 4.0L382.5909953987192 507.6418691414842Q382.5909953987192 511.6418691414842 378.5909953987192 511.6418691414842L4.0 511.6418691414842Q0.0 511.6418691414842 0.0 507.6418691414842Z" stroke="#99ff99" stroke-width="2.0" stroke-dasharray="none" opacity="1.0" fill="#343643"/></g><g id="ProcessOnG1009" transform="matrix(1.0,0.0,0.0,1.0,967.1671226581309,811.6914641918491)" opacity="1.0"><path id="ProcessOnPath1010" d="M0.0 4.0Q0.0 0.0 4.0 0.0L378.5909953987192 0.0Q382.5909953987192 0.0 382.5909953987192 4.0L382.5909953987192 507.6418691414842Q382.5909953987192 511.6418691414842 378.5909953987192 511.6418691414842L4.0 511.6418691414842Q0.0 511.6418691414842 0.0 507.6418691414842Z" stroke="#99ff99" stroke-width="2.0" stroke-dasharray="none" opacity="1.0" fill="#343643"/></g><g id="ProcessOnG1011" transform="matrix(1.0,0.0,0.0,1.0,978.8337893247974,800.0247975251825)" opacity="1.0"><path id="ProcessOnPath1012" d="M0.0 4.0Q0.0 0.0 4.0 0.0L378.5909953987192 0.0Q382.5909953987192 0.0 382.5909953987192 4.0L382.5909953987192 507.6418691414842Q382.5909953987192 511.6418691414842 378.5909953987192 511.6418691414842L4.0 511.6418691414842Q0.0 511.6418691414842 0.0 507.6418691414842Z" stroke="#99ff99" stroke-width="2.0" stroke-dasharray="none" opacity="1.0" fill="#343643"/><g id="ProcessOnG1013" transform="matrix(1.0,0.0,0.0,1.0,10.0,0.0)"><text id="ProcessOnText1014" fill="#99ff99" font-size="32" x="180.2954976993596" y="32.8" font-family="微软雅黑" font-weight="bold" font-style="normal" text-decoration="none" family="微软雅黑" text-anchor="middle" size="32"></text><text id="ProcessOnText1015" fill="#99ff99" font-size="32" x="180.2954976993596" y="72.8" font-family="微软雅黑" font-weight="bold" font-style="normal" text-decoration="none" family="微软雅黑" text-anchor="middle" size="32">MAPPING BLOCK:</text><text id="ProcessOnText1016" fill="#99ff99" font-size="32" x="180.2954976993596" y="112.8" font-family="微软雅黑" font-weight="bold" font-style="normal" text-decoration="none" family="微软雅黑" text-anchor="middle" size="32">Map to X</text></g></g><g id="ProcessOnG1017" transform="matrix(1.0,0.0,0.0,1.0,108.42964642256887,80.26769439860455)" opacity="1.0"><path id="ProcessOnPath1018" d="M0.0 0.0L1574.3408823170646 0.0L1574.3408823170646 476.32702169625236L0.0 476.32702169625236Z" stroke="#323232" stroke-width="2.0" stroke-dasharray="none" opacity="1.0" fill="#ccccff"/></g><g id="ProcessOnG1019" transform="matrix(1.0,0.0,0.0,1.0,417.82672026038887,336.15226824457557)" opacity="1.0"><path id="ProcessOnPath1020" d="M0.0 4.0Q0.0 0.0 4.0 0.0L119.11087714060726 0.0Q123.11087714060726 0.0 123.11087714060726 4.0L123.11087714060726 69.37278106508876Q123.11087714060726 73.37278106508876 119.11087714060726 73.37278106508876L4.0 73.37278106508876Q0.0 73.37278106508876 0.0 69.37278106508876Z" stroke="#999dd2" stroke-width="2.0" stroke-dasharray="none" opacity="1.0" fill="#343643"/><g id="ProcessOnG1021" transform="matrix(1.0,0.0,0.0,1.0,10.0,22.93639053254438)"><text id="ProcessOnText1022" fill="#ffffff" font-size="22" x="50.55543857030363" y="22.55" font-family="微软雅黑" font-weight="bold" font-style="normal" text-decoration="none" family="微软雅黑" text-anchor="middle" size="22">QC</text></g></g><g id="ProcessOnG1023"><path id="ProcessOnPath1024" d="M385.43726953118244 267.18185404339283L385.43726953118244 382.2303747534516L385.43726953118244 382.2303747534516L385.43726953118244 497.27889546351037" stroke="#999dd2" stroke-width="2.0" stroke-dasharray="10.0 4.0" fill="none"/></g><g id="ProcessOnG1025"><path id="ProcessOnPath1026" d="M748.4536016105076 267.18185404339283L748.4536016105076 384.5783037475344L748.4536016105076 384.5783037475344L748.4536016105076 501.97475345167595" stroke="#999dd2" stroke-width="2.0" stroke-dasharray="10.0 4.0" fill="none"/></g><g id="ProcessOnG1027" transform="matrix(1.0,0.0,0.0,1.0,578.4404897280157,335.85877712031515)" opacity="1.0"><path id="ProcessOnPath1028" d="M0.0 4.0Q0.0 0.0 4.0 0.0L143.45578464127885 0.0Q147.45578464127885 0.0 147.45578464127885 4.0L147.45578464127885 69.95976331360947Q147.45578464127885 73.95976331360947 143.45578464127885 73.95976331360947L4.0 73.95976331360947Q0.0 73.95976331360947 0.0 69.95976331360947Z" stroke="#999dd2" stroke-width="2.0" stroke-dasharray="none" opacity="1.0" fill="#343643"/><g id="ProcessOnG1029" transform="matrix(1.0,0.0,0.0,1.0,10.0,19.479881656804736)"><text id="ProcessOnText1030" fill="#ffffff" font-size="14" x="62.72789232063943" y="14.350000000000001" font-family="微软雅黑" font-weight="normal" font-style="normal" text-decoration="none" family="微软雅黑" text-anchor="middle" size="14">Trim &amp;</text><text id="ProcessOnText1031" fill="#ffffff" font-size="14" x="62.72789232063943" y="31.85" font-family="微软雅黑" font-weight="normal" font-style="normal" text-decoration="none" family="微软雅黑" text-anchor="middle" size="14">Cut adaptor</text></g></g><g id="ProcessOnG1032" transform="matrix(1.0,0.0,0.0,1.0,132.44900837515783,104.436291913215)" opacity="1.0"><path id="ProcessOnPath1033" d="M0.0 4.0Q0.0 0.0 4.0 0.0L319.55099162484214 0.0Q323.55099162484214 0.0 323.55099162484214 4.0L323.55099162484214 109.563708086785Q323.55099162484214 113.563708086785 319.55099162484214 113.563708086785L4.0 113.563708086785Q0.0 113.563708086785 0.0 109.563708086785Z" stroke="#ff3333" stroke-width="2.0" stroke-dasharray="none" opacity="1.0" fill="#343643"/><g id="ProcessOnG1034" transform="matrix(1.0,0.0,0.0,1.0,10.0,36.7818540433925)"><text id="ProcessOnText1035" fill="#99ff99" font-size="32" x="150.77549581242107" y="32.8" font-family="微软雅黑" font-weight="bold" font-style="normal" text-decoration="none" family="微软雅黑" text-anchor="middle" size="32">Whole Pipeline</text></g></g><g id="ProcessOnG1036" transform="matrix(1.0,0.0,0.0,1.0,158.14021786305287,295.0635108481264)" opacity="1.0"><path id="ProcessOnPath1037" d="M0.0 4.0Q0.0 0.0 4.0 0.0L202.53378560094782 0.0Q206.53378560094782 0.0 206.53378560094782 4.0L206.53378560094782 121.61420118343196Q206.53378560094782 125.61420118343196 202.53378560094782 125.61420118343196L4.0 125.61420118343196Q0.0 125.61420118343196 0.0 121.61420118343196Z" stroke="#3333ff" stroke-width="1.0" stroke-dasharray="none" opacity="1.0" fill="#ffcccc"/></g><g id="ProcessOnG1038" transform="matrix(1.0,0.0,0.0,1.0,143.27299983341294,309.4445759368836)" opacity="1.0"><path id="ProcessOnPath1039" d="M0.0 4.0Q0.0 0.0 4.0 0.0L201.57662652873 0.0Q205.57662652873 0.0 205.57662652873 4.0L205.57662652873 122.78816568047337Q205.57662652873 126.78816568047337 201.57662652873 126.78816568047337L4.0 126.78816568047337Q0.0 126.78816568047337 0.0 122.78816568047337Z" stroke="#3333ff" stroke-width="2.0" stroke-dasharray="none" opacity="1.0" fill="#ff9999"/></g><g id="ProcessOnG1040" transform="matrix(1.0,0.0,0.0,1.0,139.65664950187917,321.1842209072978)" opacity="1.0"><path id="ProcessOnPath1041" d="M0.0 0.0L200.01542574410803 0.0L200.01542574410803 46.9585798816568L0.0 46.9585798816568Z" stroke="none" stroke-width="0.0" stroke-dasharray="none" opacity="1.0" fill="none"/><g id="ProcessOnG1042" transform="matrix(1.0,0.0,0.0,1.0,0.0,14.104289940828401)"><text id="ProcessOnText1043" fill="#0000ff" font-size="15" x="99.00771287205401" y="15.375" font-family="微软雅黑" font-weight="bold" font-style="normal" text-decoration="none" family="微软雅黑" text-anchor="middle" size="15">RAW DATA</text></g></g><g id="ProcessOnG1044" transform="matrix(1.0,0.0,0.0,1.0,149.65742078908465,368.1428007889542)" opacity="1.0"><path id="ProcessOnPath1045" d="M0.0 4.0Q0.0 0.0 4.0 0.0L74.75607388674253 0.0Q78.75607388674253 0.0 78.75607388674253 4.0L78.75607388674253 34.74082840236686Q78.75607388674253 38.74082840236686 74.75607388674253 38.74082840236686L4.0 38.74082840236686Q0.0 38.74082840236686 0.0 34.74082840236686Z" stroke="#ff9999" stroke-width="2.0" stroke-dasharray="none" opacity="1.0" fill="#ff6666"/><g id="ProcessOnG1046" transform="matrix(1.0,0.0,0.0,1.0,10.0,11.24541420118343)"><text id="ProcessOnText1047" fill="#000000" font-size="13" x="28.378036943371264" y="13.325" font-family="微软雅黑" font-weight="normal" font-style="normal" text-decoration="none" family="微软雅黑" text-anchor="middle" size="13">150 nt</text></g></g><g id="ProcessOnG1048" transform="matrix(1.0,0.0,0.0,1.0,232.163783908529,368.1428007889542)" opacity="1.0"><path id="ProcessOnPath1049" d="M0.0 4.0Q0.0 0.0 4.0 0.0L103.50829133745806 0.0Q107.50829133745806 0.0 107.50829133745806 4.0L107.50829133745806 34.74082840236686Q107.50829133745806 38.74082840236686 103.50829133745806 38.74082840236686L4.0 38.74082840236686Q0.0 38.74082840236686 0.0 34.74082840236686Z" stroke="#ff9999" stroke-width="2.0" stroke-dasharray="none" opacity="1.0" fill="#ff6666"/><g id="ProcessOnG1050" transform="matrix(1.0,0.0,0.0,1.0,10.0,11.24541420118343)"><text id="ProcessOnText1051" fill="#000000" font-size="13" x="42.75414566872903" y="13.325" font-family="微软雅黑" font-weight="normal" font-style="normal" text-decoration="none" family="微软雅黑" text-anchor="middle" size="13">Paried end</text></g></g><g id="ProcessOnG1052"><path id="ProcessOnPath1053" d="M348.8496263621431 372.8386587771199L383.338173311266 372.8386587771199L383.338173311266 372.8386587771199L402.5906522828891 372.8386587771199" stroke="#323232" stroke-width="2.0" stroke-dasharray="none" fill="none" marker-end="url(#ProcessOnMarker1054)"/></g><g id="ProcessOnG1056"><path id="ProcessOnPath1057" d="M540.9375974009952 372.8386587771199L559.6890435645055 372.8386587771199L559.6890435645055 372.8386587771199L563.2044217505158 372.8386587771199" stroke="#323232" stroke-width="2.0" stroke-dasharray="none" fill="none" marker-end="url(#ProcessOnMarker1058)"/></g><g id="ProcessOnG1060" transform="matrix(1.0,0.0,0.0,1.0,791.737134655612,295.0635108481264)" opacity="1.0"><path id="ProcessOnPath1061" d="M0.0 4.0Q0.0 0.0 4.0 0.0L202.53378560094782 0.0Q206.53378560094782 0.0 206.53378560094782 4.0L206.53378560094782 121.61420118343196Q206.53378560094782 125.61420118343196 202.53378560094782 125.61420118343196L4.0 125.61420118343196Q0.0 125.61420118343196 0.0 121.61420118343196Z" stroke="#3333ff" stroke-width="1.0" stroke-dasharray="none" opacity="1.0" fill="#ffcccc"/></g><g id="ProcessOnG1062" transform="matrix(1.0,0.0,0.0,1.0,774.9261213552154,309.4445759368836)" opacity="1.0"><path id="ProcessOnPath1063" d="M0.0 4.0Q0.0 0.0 4.0 0.0L201.57662652873 0.0Q205.57662652873 0.0 205.57662652873 4.0L205.57662652873 122.78816568047337Q205.57662652873 126.78816568047337 201.57662652873 126.78816568047337L4.0 126.78816568047337Q0.0 126.78816568047337 0.0 122.78816568047337Z" stroke="#3333ff" stroke-width="2.0" stroke-dasharray="none" opacity="1.0" fill="#ff9999"/></g><g id="ProcessOnG1064" transform="matrix(1.0,0.0,0.0,1.0,756.4550827622149,321.1842209072978)" opacity="1.0"><path id="ProcessOnPath1065" d="M0.0 0.0L200.01542574410803 0.0L200.01542574410803 46.9585798816568L0.0 46.9585798816568Z" stroke="none" stroke-width="0.0" stroke-dasharray="none" opacity="1.0" fill="none"/><g id="ProcessOnG1066" transform="matrix(1.0,0.0,0.0,1.0,0.0,14.104289940828401)"><text id="ProcessOnText1067" fill="#0000ff" font-size="15" x="99.00771287205401" y="15.375" font-family="微软雅黑" font-weight="bold" font-style="normal" text-decoration="none" family="微软雅黑" text-anchor="middle" size="15">Trimmed DATA</text></g></g><g id="ProcessOnG1068" transform="matrix(1.0,0.0,0.0,1.0,779.7060118830244,368.1428007889542)" opacity="1.0"><path id="ProcessOnPath1069" d="M0.0 4.0Q0.0 0.0 4.0 0.0L74.75607388674253 0.0Q78.75607388674253 0.0 78.75607388674253 4.0L78.75607388674253 34.74082840236686Q78.75607388674253 38.74082840236686 74.75607388674253 38.74082840236686L4.0 38.74082840236686Q0.0 38.74082840236686 0.0 34.74082840236686Z" stroke="#ff9999" stroke-width="2.0" stroke-dasharray="none" opacity="1.0" fill="#ff6666"/><g id="ProcessOnG1070" transform="matrix(1.0,0.0,0.0,1.0,10.0,11.24541420118343)"><text id="ProcessOnText1071" fill="#000000" font-size="13" x="28.378036943371264" y="13.325" font-family="微软雅黑" font-weight="normal" font-style="normal" text-decoration="none" family="微软雅黑" text-anchor="middle" size="13">50 nt</text></g></g><g id="ProcessOnG1072" transform="matrix(1.0,0.0,0.0,1.0,864.1032292030997,368.1428007889542)" opacity="1.0"><path id="ProcessOnPath1073" d="M0.0 4.0Q0.0 0.0 4.0 0.0L103.50829133745806 0.0Q107.50829133745806 0.0 107.50829133745806 4.0L107.50829133745806 34.74082840236686Q107.50829133745806 38.74082840236686 103.50829133745806 38.74082840236686L4.0 38.74082840236686Q0.0 38.74082840236686 0.0 34.74082840236686Z" stroke="#ff9999" stroke-width="2.0" stroke-dasharray="none" opacity="1.0" fill="#ff6666"/><g id="ProcessOnG1074" transform="matrix(1.0,0.0,0.0,1.0,10.0,11.24541420118343)"><text id="ProcessOnText1075" fill="#000000" font-size="13" x="42.75414566872903" y="13.325" font-family="微软雅黑" font-weight="normal" font-style="normal" text-decoration="none" family="微软雅黑" text-anchor="middle" size="13">Single end</text></g></g><g id="ProcessOnG1076"><path id="ProcessOnPath1077" d="M725.896274369295 372.8386587771199L750.4111978622552 372.8386587771199L750.4111978622552 372.8386587771199L759.6900533777156 372.8386587771199" stroke="#454545" stroke-width="2.0" stroke-dasharray="none" fill="none" marker-end="url(#ProcessOnMarker1078)"/></g><g id="ProcessOnG1080" transform="matrix(1.0,0.0,0.0,1.0,1043.4763545830665,245.4635108481267)" opacity="1.0"><g id="ProcessOnG1082" transform="matrix(0.6667180858136934,0.0,0.0,0.3766469428007889,0.0,0.0)"> <path fill="none" stroke="#000000" stroke-width="2" stroke-miterlimit="10" stroke-dasharray="20,8,2,8" d="M239,219.96 c0,10.518-8.524,19.04-19.04,19.04H20.04C9.524,239,1,230.478,1,219.96V20.04C1,9.524,9.524,1,20.04,1h199.92 C230.476,1,239,9.524,239,20.04V219.96z"/>  </g><g id="ProcessOnG1083" transform="matrix(1.0,0.0,0.0,1.0,0.0,34.57263313609467)"><text id="ProcessOnText1084" fill="#323232" font-size="17" x="79.00617029764321" y="17.425" font-family="微软雅黑" font-weight="bold" font-style="normal" text-decoration="none" family="微软雅黑" text-anchor="middle" size="17">ⅠCollapse</text></g></g><g id="ProcessOnG1085" transform="matrix(1.0,0.0,0.0,1.0,1257.24284084708,192.048126232742)" opacity="1.0"><path id="ProcessOnPath1086" d="M0.0 4.0Q0.0 0.0 4.0 0.0L397.28094789911677 0.0Q401.28094789911677 0.0 401.28094789911677 4.0L401.28094789911677 317.6662721893491Q401.28094789911677 321.6662721893491 397.28094789911677 321.6662721893491L4.0 321.6662721893491Q0.0 321.6662721893491 0.0 317.6662721893491Z" stroke="#999dd2" stroke-width="2.0" stroke-dasharray="10.0 4.0" opacity="1.0" fill="#343643"/></g><g id="ProcessOnG1087" transform="matrix(1.0,0.0,0.0,1.0,1291.1998942087632,210.38574717474734)" opacity="1.0"><path id="ProcessOnPath1088" d="M0.0 0.0L343.7456451879125 0.0L343.7456451879125 109.01364425427505L0.0 109.01364425427505Z" stroke="none" stroke-width="0.0" stroke-dasharray="none" opacity="1.0" fill="none"/></g><g id="ProcessOnG1089" transform="matrix(1.0,0.0,0.0,1.0,1291.1998942087632,360.12295890405915)" opacity="1.0"><path id="ProcessOnPath1090" d="M0.0 4.0Q0.0 0.0 4.0 0.0L145.21512871431761 0.0Q149.21512871431761 0.0 149.21512871431761 4.0L149.21512871431761 76.78165677072903Q149.21512871431761 80.78165677072903 145.21512871431761 80.78165677072903L4.0 80.78165677072903Q0.0 80.78165677072903 0.0 76.78165677072903Z" stroke="#7176b9" stroke-width="2.0" stroke-dasharray="none" opacity="1.0" fill="#7176b9"/><g id="ProcessOnG1091" transform="matrix(1.0,0.0,0.0,1.0,10.0,30.390828385364514)"><text id="ProcessOnText1092" fill="#ffffff" font-size="16" x="63.60756435715881" y="16.4" font-family="微软雅黑" font-weight="normal" font-style="normal" text-decoration="none" family="微软雅黑" text-anchor="middle" size="16">Remove rRNA</text></g></g><g id="ProcessOnG1093" transform="matrix(1.0,0.0,0.0,1.0,1474.0455661562862,360.12295890405915)" opacity="1.0"><path id="ProcessOnPath1094" d="M0.0 4.0Q0.0 0.0 4.0 0.0L145.21512871431761 0.0Q149.21512871431761 0.0 149.21512871431761 4.0L149.21512871431761 76.78165677072903Q149.21512871431761 80.78165677072903 145.21512871431761 80.78165677072903L4.0 80.78165677072903Q0.0 80.78165677072903 0.0 76.78165677072903Z" stroke="#7176b9" stroke-width="2.0" stroke-dasharray="none" opacity="1.0" fill="#7176b9"/><g id="ProcessOnG1095" transform="matrix(1.0,0.0,0.0,1.0,10.0,30.390828385364514)"><text id="ProcessOnText1096" fill="#ffffff" font-size="16" x="63.60756435715881" y="16.4" font-family="微软雅黑" font-weight="normal" font-style="normal" text-decoration="none" family="微软雅黑" text-anchor="middle" size="16">Map to RNAs</text></g></g><g id="ProcessOnG1097" transform="matrix(1.0,0.0,0.0,1.0,1043.4763545830665,401.013806706114)" opacity="1.0"><g id="ProcessOnG1099" transform="matrix(0.6667180858136934,0.0,0.0,0.3766469428007889,0.0,0.0)"> <path fill="none" stroke="#000000" stroke-width="2" stroke-miterlimit="10" stroke-dasharray="20,8,2,8" d="M239,219.96 c0,10.518-8.524,19.04-19.04,19.04H20.04C9.524,239,1,230.478,1,219.96V20.04C1,9.524,9.524,1,20.04,1h199.92 C230.476,1,239,9.524,239,20.04V219.96z"/>  </g><g id="ProcessOnG1100" transform="matrix(1.0,0.0,0.0,1.0,0.0,34.57263313609467)"><text id="ProcessOnText1101" fill="#171717" font-size="17" x="79.00617029764321" y="17.425" font-family="微软雅黑" font-weight="bold" font-style="normal" text-decoration="none" family="微软雅黑" text-anchor="middle" size="17">ⅡNo Collapse</text></g></g><g id="ProcessOnG1102"><path id="ProcessOnPath1103" d="M980.5027478839453 372.8386587771199L1011.9895512335058 372.8386587771199L1011.9895512335058 446.2114398422085L1028.2402866055668 446.2114398422085" stroke="#5c5c5c" stroke-width="2.0" stroke-dasharray="none" fill="none" marker-end="url(#ProcessOnMarker1104)"/></g><g id="ProcessOnG1106"><path id="ProcessOnPath1107" d="M980.5027478839453 372.8386587771199L1011.9895512335058 372.8386587771199L1011.9895512335058 290.661143984221L1028.2402866055668 290.661143984221" stroke="#454545" stroke-width="2.0" stroke-dasharray="none" fill="none" marker-end="url(#ProcessOnMarker1108)"/></g><g id="ProcessOnG1110"><path id="ProcessOnPath1111" d="M1203.488695178351 290.661143984221C1236.378453592097 290.661143984221 1224.353082433334 352.88126232741575 1242.0067728695803 352.88126232741575" stroke="#33ff33" stroke-width="2.0" stroke-dasharray="none" fill="none" marker-end="url(#ProcessOnMarker1112)"/></g><g id="ProcessOnG1114"><path id="ProcessOnPath1115" d="M1203.488695178351 446.2114398422085C1246.5700697367704 446.2114398422085 1214.1614662886607 352.88126232741575 1242.0067728695803 352.88126232741575" stroke="#ff3333" stroke-width="2.0" stroke-dasharray="none" fill="none" marker-end="url(#ProcessOnMarker1116)"/></g><g id="ProcessOnG1118" transform="matrix(1.0,0.0,0.0,1.0,1304.7465044613057,230.7889546351089)" opacity="1.0"><path id="ProcessOnPath1119" d="M0.0 0.0L333.77574171048025 0.0L333.77574171048025 51.65443786982248L0.0 51.65443786982248Z" stroke="none" stroke-width="0.0" stroke-dasharray="none" opacity="1.0" fill="none"/><g id="ProcessOnG1120" transform="matrix(1.0,0.0,0.0,1.0,0.0,8.32721893491124)"><text id="ProcessOnText1121" fill="#ffffff" font-size="28" x="165.88787085524012" y="28.700000000000003" font-family="微软雅黑" font-weight="bold" font-style="normal" text-decoration="none" family="微软雅黑" text-anchor="middle" size="28">Mapping Process</text></g></g><g id="ProcessOnG1122" transform="matrix(1.0,0.0,0.0,1.0,1497.4285714285713,1021.6972645185408)" opacity="1.0"><path id="ProcessOnPath1123" d="M0.0 4.0Q0.0 0.0 4.0 0.0L171.96436553013473 0.0Q175.96436553013473 0.0 175.96436553013473 4.0L175.96436553013473 97.77213987703306Q175.96436553013473 101.77213987703306 171.96436553013473 101.77213987703306L4.0 101.77213987703306Q0.0 101.77213987703306 0.0 97.77213987703306Z" stroke="#58b382" stroke-width="2.0" stroke-dasharray="none" opacity="1.0" fill="#58b382"/></g><g id="ProcessOnG1124" transform="matrix(1.0,0.0,0.0,1.0,1521.0330494185823,1042.6102304024464)" opacity="1.0"><path id="ProcessOnPath1125" d="M0.0 0.0L134.5 0.0L134.5 59.0L0.0 59.0Z" stroke="none" stroke-width="0.0" stroke-dasharray="none" opacity="1.0" fill="none"/><g id="ProcessOnG1126" transform="matrix(1.0,0.0,0.0,1.0,0.0,10.75)"><text id="ProcessOnText1127" fill="#ffffff" font-size="30" x="66.25" y="30.75" font-family="微软雅黑" font-weight="bold" font-style="normal" text-decoration="none" family="微软雅黑" text-anchor="middle" size="30">Reads</text></g></g><g id="ProcessOnG1128" transform="matrix(1.0,0.0,0.0,1.0,1350.0758661280925,657.6008461252607)" opacity="1.0"><path id="ProcessOnPath1129" d="M0.0 4.0Q0.0 0.0 4.0 0.0L319.55099162484214 0.0Q323.55099162484214 0.0 323.55099162484214 4.0L323.55099162484214 109.563708086785Q323.55099162484214 113.563708086785 319.55099162484214 113.563708086785L4.0 113.563708086785Q0.0 113.563708086785 0.0 109.563708086785Z" stroke="#ff3333" stroke-width="2.0" stroke-dasharray="none" opacity="1.0" fill="#343643"/><g id="ProcessOnG1130" transform="matrix(1.0,0.0,0.0,1.0,10.0,36.7818540433925)"><text id="ProcessOnText1131" fill="#99ff99" font-size="32" x="150.77549581242107" y="32.8" font-family="微软雅黑" font-weight="bold" font-style="normal" text-decoration="none" family="微软雅黑" text-anchor="middle" size="32">Mapping Process</text></g></g><g id="ProcessOnG1132"><path id="ProcessOnPath1133" d="M1457.8833147966384 513.7143984220911C1457.8833147966384 575.1842088270832 1511.8513619405135 596.1310357202685 1511.8513619405135 637.5106761815111" stroke="#454545" stroke-width="5.0" stroke-dasharray="none" fill="none" marker-end="url(#ProcessOnMarker1134)"/></g><g id="ProcessOnG1136"><path id="ProcessOnPath1137" d="M1511.8513619405135 771.1645542120457C1511.8513619405135 875.6079345649755 1585.4107541936387 917.253884165611 1585.4107541936387 1006.461196541041" stroke="#171717" stroke-width="2.0" stroke-dasharray="none" fill="none" marker-end="url(#ProcessOnMarker1138)"/></g><g id="ProcessOnG1140" transform="matrix(1.0,0.0,0.0,1.0,1143.1917459293159,1065.3174020162305)" opacity="1.0"><path id="ProcessOnPath1141" d="M0.0 0.0L196.39916838175697 0.0L196.39916838175697 133.52356673544594L0.0 133.52356673544594Z" stroke="#323232" stroke-width="2.0" stroke-dasharray="none" opacity="1.0" fill="#454545"/></g><g id="ProcessOnG1142" transform="matrix(1.0,0.0,0.0,1.0,1124.4645249033601,1076.446083666137)" opacity="1.0"><path id="ProcessOnPath1143" d="M0.0 4.0Q0.0 0.0 4.0 0.0L196.38817644878912 0.0Q200.38817644878912 0.0 200.38817644878912 4.0L200.38817644878912 126.18547756705979Q200.38817644878912 130.1854775670598 196.38817644878912 130.1854775670598L4.0 130.1854775670598Q0.0 130.1854775670598 0.0 126.18547756705979Z" stroke="#000000" stroke-width="2.0" stroke-dasharray="none" opacity="1.0" fill="#323232"/></g><g id="ProcessOnG1144" transform="matrix(1.0,0.0,0.0,1.0,1201.4247847235179,1131.270281674407)" opacity="1.0"><path id="ProcessOnPath1145" d="M0.0 0.0L160.0 0.0L160.0 40.0L0.0 40.0Z" stroke="none" stroke-width="0.0" stroke-dasharray="none" opacity="1.0" fill="none"/><g id="ProcessOnG1146" transform="matrix(1.0,0.0,0.0,1.0,0.0,7.5)"><text id="ProcessOnText1147" fill="#ffffff" font-size="20" x="79.0" y="20.5" font-family="微软雅黑" font-weight="bold" font-style="normal" text-decoration="none" family="微软雅黑" text-anchor="middle" size="20">Mapped</text></g></g><g id="ProcessOnG1148" transform="matrix(1.0,0.0,0.0,1.0,1151.8695270171647,1159.4379559545537)" opacity="1.0"><path id="ProcessOnPath1149" d="M0.0 0.0L84.0 0.0L84.0 41.14488365311536L0.0 41.14488365311536Z" stroke="#66ff66" stroke-width="2.0" stroke-dasharray="none" opacity="1.0" fill="#323232"/><g id="ProcessOnG1150" transform="matrix(1.0,0.0,0.0,1.0,10.0,4.322441826557679)"><text id="ProcessOnText1151" fill="#ffffff" font-size="13" x="31.0" y="13.325" font-family="微软雅黑" font-weight="normal" font-style="normal" text-decoration="none" family="微软雅黑" text-anchor="middle" size="13">Truly </text><text id="ProcessOnText1152" fill="#ffffff" font-size="13" x="31.0" y="29.575" font-family="微软雅黑" font-weight="normal" font-style="normal" text-decoration="none" family="微软雅黑" text-anchor="middle" size="13">Mapped</text></g></g><g id="ProcessOnG1153" transform="matrix(1.0,0.0,0.0,1.0,1149.9599866716776,1093.9542142425685)" opacity="1.0"><path id="ProcessOnPath1154" d="M0.0 0.0L84.0 0.0L84.0 41.14488365311536L0.0 41.14488365311536Z" stroke="#9999ff" stroke-width="2.0" stroke-dasharray="none" opacity="1.0" fill="#323232"/><g id="ProcessOnG1155" transform="matrix(1.0,0.0,0.0,1.0,10.0,4.322441826557679)"><text id="ProcessOnText1156" fill="#ffffff" font-size="13" x="31.0" y="13.325" font-family="微软雅黑" font-weight="normal" font-style="normal" text-decoration="none" family="微软雅黑" text-anchor="middle" size="13">Anti-</text><text id="ProcessOnText1157" fill="#ffffff" font-size="13" x="31.0" y="29.575" font-family="微软雅黑" font-weight="normal" font-style="normal" text-decoration="none" family="微软雅黑" text-anchor="middle" size="13">sense</text></g></g><g id="ProcessOnG1158" transform="matrix(1.0,0.0,0.0,1.0,1159.8629884366997,928.0818267513226)" opacity="1.0"><path id="ProcessOnPath1159" d="M0.0 0.0L128.6901378559402 0.0L128.6901378559402 78.62377339776604L0.0 78.62377339776604Z" stroke="#323232" stroke-width="2.0" stroke-dasharray="none" opacity="1.0" fill="#454545"/></g><g id="ProcessOnG1160" transform="matrix(1.0,0.0,0.0,1.0,1146.7662859616385,941.3924699040382)" opacity="1.0"><path id="ProcessOnPath1161" d="M0.0 4.0Q0.0 0.0 4.0 0.0L127.30392691769933 0.0Q131.30392691769933 0.0 131.30392691769933 4.0L131.30392691769933 72.6581790628219Q131.30392691769933 76.6581790628219 127.30392691769933 76.6581790628219L4.0 76.6581790628219Q0.0 76.6581790628219 0.0 72.6581790628219Z" stroke="#323232" stroke-width="2.0" stroke-dasharray="none" opacity="1.0" fill="#323232"/></g><g id="ProcessOnG1162" transform="matrix(1.0,0.0,0.0,1.0,1157.8725809899734,966.1899855876426)" opacity="1.0"><path id="ProcessOnPath1163" d="M0.0 0.0L104.83966009941123 0.0L104.83966009941123 23.553527012514753L0.0 23.553527012514753Z" stroke="none" stroke-width="0.0" stroke-dasharray="none" opacity="1.0" fill="none"/><g id="ProcessOnG1164" transform="matrix(1.0,0.0,0.0,1.0,0.0,1.1517635062573763)"><text id="ProcessOnText1165" fill="#ffffff" font-size="17" x="51.41983004970562" y="17.425" font-family="微软雅黑" font-weight="bold" font-style="normal" text-decoration="none" family="微软雅黑" text-anchor="middle" size="17">Unmapped</text></g></g><g id="ProcessOnG1166" transform="matrix(1.0,0.0,0.0,1.0,1173.31626881084,1238.8336603042453)" opacity="1.0"><path id="ProcessOnPath1167" d="M0.0 4.0Q0.0 0.0 4.0 0.0L110.0 0.0Q114.0 0.0 114.0 4.0L114.0 61.0Q114.0 65.0 110.0 65.0L4.0 65.0Q0.0 65.0 0.0 61.0Z" stroke="#323232" stroke-width="2.0" stroke-dasharray="none" opacity="1.0" fill="#9999ff"/><g id="ProcessOnG1168" transform="matrix(1.0,0.0,0.0,1.0,10.0,22.5)"><text id="ProcessOnText1169" fill="#000000" font-size="16" x="46.0" y="16.4" font-family="微软雅黑" font-weight="bold" font-style="normal" text-decoration="none" family="微软雅黑" text-anchor="middle" size="16">rRNA reads</text></g></g><g id="ProcessOnG1170"><path id="ProcessOnPath1171" d="M1193.8695270171647 1200.582839607669C1193.8695270171647 1221.716661869954 1230.31626881084 1217.699838041961 1230.31626881084 1223.5975923267456" stroke="#ffffff" stroke-width="2.0" stroke-dasharray="none" fill="none" marker-end="url(#ProcessOnMarker1172)"/></g><g id="ProcessOnG1174" transform="matrix(1.0,0.0,0.0,1.0,1012.9438147320286,979.845732095925)" opacity="1.0"><path id="ProcessOnPath1175" d="M100.0 0.0Q91.0 0.0 91.0 9.0L91.0 61.0Q91.0 70.0 78.0 70.0Q91.0 70.0 91.0 79.0L91.0 131.0Q91.0 140.0 100.0 140.0" stroke="#ffffff" stroke-width="2.0" stroke-dasharray="none" opacity="1.0" fill="none"/><path id="ProcessOnPath1176" d="M0.0 0.0L100.0 0.0L100.0 140.0L0.0 140.0Z" stroke="none" stroke-width="0.0" stroke-dasharray="none" opacity="1.0" fill="none"/></g><g id="ProcessOnG1177"><path id="ProcessOnPath1178" d="M1224.6586131277545 1076.446083666137C1224.6586131277545 1052.5802811951414 1212.4182494204883 1041.916451437856 1212.4182494204883 1033.28671694436" stroke="#323232" stroke-width="2.0" stroke-dasharray="none" fill="none" marker-end="url(#ProcessOnMarker1179)"/></g><g id="ProcessOnG1181" transform="matrix(1.0,0.0,0.0,1.0,992.1671226581306,1023.3625127954085)" opacity="1.0"><path id="ProcessOnPath1182" d="M0.0 22.483219300516794L17.34520403363096 0.0L104.07122420178575 0.0L86.72602016815479 22.483219300516794L104.07122420178575 44.96643860103359L17.34520403363096 44.96643860103359L0.0 22.483219300516794Z" stroke="#3333ff" stroke-width="4.0" stroke-dasharray="none" opacity="1.0" fill="#9999ff"/><g id="ProcessOnG1183" transform="matrix(1.0,0.0,0.0,1.0,17.34520403363096,14.358219300516794)"><text id="ProcessOnText1184" fill="#000000" font-size="13" x="33.69040806726191" y="13.325" font-family="微软雅黑" font-weight="bold" font-style="normal" text-decoration="none" family="微软雅黑" text-anchor="middle" size="13">Map to X</text></g></g><g id="ProcessOnG1185" transform="matrix(1.0,0.0,0.0,1.0,1373.432080541382,1049.8874427753194)" opacity="1.0"><path id="ProcessOnPath1186" d="M0.0 22.483219300516794L17.34520403363096 0.0L104.07122420178575 0.0L86.72602016815479 22.483219300516794L104.07122420178575 44.96643860103359L17.34520403363096 44.96643860103359L0.0 22.483219300516794Z" stroke="#3333ff" stroke-width="4.0" stroke-dasharray="none" opacity="1.0" fill="#9999ff"/><g id="ProcessOnG1187" transform="matrix(1.0,0.0,0.0,1.0,17.34520403363096,6.233219300516794)"><text id="ProcessOnText1188" fill="#000000" font-size="13" x="33.69040806726191" y="13.325" font-family="微软雅黑" font-weight="bold" font-style="normal" text-decoration="none" family="微软雅黑" text-anchor="middle" size="13">Map to </text><text id="ProcessOnText1189" fill="#000000" font-size="13" x="33.69040806726191" y="29.575" font-family="微软雅黑" font-weight="bold" font-style="normal" text-decoration="none" family="微软雅黑" text-anchor="middle" size="13">rRNA</text></g></g><g id="ProcessOnG1190" transform="matrix(-1.0,1.2246467991473532E-16,-1.2246467991473532E-16,-1.0,458.8352023354164,1084.4685212976608)" opacity="1.0"><path id="ProcessOnPath1191" d="M0.0 0.0L180.0 0.0L180.0 62.32959532916698L90.0 92.32959532916698L0.0 62.32959532916698L0.0 0.0Z" stroke="#323232" stroke-width="2.0" stroke-dasharray="none" opacity="1.0" fill="#99ccff"/></g><g id="ProcessOnG1192" transform="matrix(1.0,0.0,0.0,1.0,314.60633316674637,1025.3916922574836)" opacity="1.0"><path id="ProcessOnPath1193" d="M0.0 0.0L78.06033349992032 0.0L78.06033349992032 35.34905454657746L0.0 35.34905454657746Z" stroke="none" stroke-width="0.0" stroke-dasharray="none" opacity="1.0" fill="none"/><g id="ProcessOnG1194" transform="matrix(1.0,0.0,0.0,1.0,0.0,-17.95047272671127)"><text id="ProcessOnText1195" fill="#000000" font-size="19" x="38.03016674996016" y="19.475" font-family="微软雅黑" font-weight="bold" font-style="normal" text-decoration="none" family="微软雅黑" text-anchor="middle" size="19">Map to </text><text id="ProcessOnText1196" fill="#000000" font-size="19" x="38.03016674996016" y="43.225" font-family="微软雅黑" font-weight="bold" font-style="normal" text-decoration="none" family="微软雅黑" text-anchor="middle" size="19">human </text><text id="ProcessOnText1197" fill="#000000" font-size="19" x="38.03016674996016" y="66.975" font-family="微软雅黑" font-weight="bold" font-style="normal" text-decoration="none" family="微软雅黑" text-anchor="middle" size="19">genome</text></g></g><g id="ProcessOnG1198" transform="matrix(1.0,0.0,0.0,1.0,243.00000000000003,900.6666666666666)" opacity="1.0"><path id="ProcessOnPath1199" d="M0.0 4.0Q0.0 0.0 4.0 0.0L106.0 0.0Q110.0 0.0 110.0 4.0L110.0 43.579076385693384Q110.0 47.579076385693384 106.0 47.579076385693384L4.0 47.579076385693384Q0.0 47.579076385693384 0.0 43.579076385693384Z" stroke="#99ff99" stroke-width="2.0" stroke-dasharray="none" opacity="1.0" fill="#323232"/><g id="ProcessOnG1200" transform="matrix(1.0,0.0,0.0,1.0,10.0,13.789538192846692)"><text id="ProcessOnText1201" fill="#ffffff" font-size="16" x="44.0" y="16.4" font-family="微软雅黑" font-weight="normal" font-style="normal" text-decoration="none" family="微软雅黑" text-anchor="middle" size="16">Mapped</text></g></g><g id="ProcessOnG1202" transform="matrix(1.0,0.0,0.0,1.0,387.5459996668258,898.6666666666666)" opacity="1.0"><path id="ProcessOnPath1203" d="M0.0 4.0Q0.0 0.0 4.0 0.0L106.0 0.0Q110.0 0.0 110.0 4.0L110.0 43.579076385693384Q110.0 47.579076385693384 106.0 47.579076385693384L4.0 47.579076385693384Q0.0 47.579076385693384 0.0 43.579076385693384Z" stroke="#b3ff66" stroke-width="2.0" stroke-dasharray="none" opacity="1.0" fill="#323232"/><g id="ProcessOnG1204" transform="matrix(1.0,0.0,0.0,1.0,10.0,13.789538192846692)"><text id="ProcessOnText1205" fill="#ffffff" font-size="16" x="44.0" y="16.4" font-family="微软雅黑" font-weight="normal" font-style="normal" text-decoration="none" family="微软雅黑" text-anchor="middle" size="16">Unmapped</text></g></g><g id="ProcessOnG1206" transform="matrix(1.0,0.0,0.0,1.0,240.76624258038376,810.2571609517923)" opacity="1.0"><path id="ProcessOnPath1207" d="M0.0 4.0Q0.0 0.0 4.0 0.0L110.0 0.0Q114.0 0.0 114.0 4.0L114.0 61.0Q114.0 65.0 110.0 65.0L4.0 65.0Q0.0 65.0 0.0 61.0Z" stroke="#323232" stroke-width="2.0" stroke-dasharray="none" opacity="1.0" fill="#9999ff"/><g id="ProcessOnG1208" transform="matrix(1.0,0.0,0.0,1.0,10.0,12.5)"><text id="ProcessOnText1209" fill="#000000" font-size="16" x="46.0" y="16.4" font-family="微软雅黑" font-weight="bold" font-style="normal" text-decoration="none" family="微软雅黑" text-anchor="middle" size="16">other HG </text><text id="ProcessOnText1210" fill="#000000" font-size="16" x="46.0" y="36.4" font-family="微软雅黑" font-weight="bold" font-style="normal" text-decoration="none" family="微软雅黑" text-anchor="middle" size="16">reads</text></g></g><g id="ProcessOnG1211" transform="matrix(1.0,0.0,0.0,1.0,385.7797570864421,810.2571609517923)" opacity="1.0"><path id="ProcessOnPath1212" d="M0.0 4.0Q0.0 0.0 4.0 0.0L110.0 0.0Q114.0 0.0 114.0 4.0L114.0 61.0Q114.0 65.0 110.0 65.0L4.0 65.0Q0.0 65.0 0.0 61.0Z" stroke="#323232" stroke-width="2.0" stroke-dasharray="none" opacity="1.0" fill="#9999ff"/><g id="ProcessOnG1213" transform="matrix(1.0,0.0,0.0,1.0,10.0,12.5)"><text id="ProcessOnText1214" fill="#000000" font-size="16" x="46.0" y="16.4" font-family="微软雅黑" font-weight="bold" font-style="normal" text-decoration="none" family="微软雅黑" text-anchor="middle" size="16">non-human</text><text id="ProcessOnText1215" fill="#000000" font-size="16" x="46.0" y="36.4" font-family="微软雅黑" font-weight="bold" font-style="normal" text-decoration="none" family="微软雅黑" text-anchor="middle" size="16">reads</text></g></g><g id="ProcessOnG1216"><path id="ProcessOnPath1217" d="M525.1202682771727 801.943758805298L525.1202682771727 1079.0671174978875L525.1202682771727 1079.0671174978875L525.1202682771727 1356.1904761904766" stroke="#999dd2" stroke-width="2.0" stroke-dasharray="10.0 4.0" fill="none"/></g><g id="ProcessOnG1218"><path id="ProcessOnPath1219" d="M936.7869349438389 798.6104254719651L936.7869349438389 1075.7337841645533L936.7869349438389 1075.7337841645533L936.7869349438389 1352.8571428571424" stroke="#999dd2" stroke-width="2.0" stroke-dasharray="10.0 4.0" fill="none"/></g><g id="ProcessOnG1220" transform="matrix(1.0,0.0,0.0,1.0,568.4091994614256,813.2789094989166)" opacity="1.0"><path id="ProcessOnPath1221" d="M0.0 4.0Q0.0 0.0 4.0 0.0L319.55099162484214 0.0Q323.55099162484214 0.0 323.55099162484214 4.0L323.55099162484214 109.563708086785Q323.55099162484214 113.563708086785 319.55099162484214 113.563708086785L4.0 113.563708086785Q0.0 113.563708086785 0.0 109.563708086785Z" stroke="#ff3333" stroke-width="2.0" stroke-dasharray="none" opacity="1.0" fill="#343643"/><g id="ProcessOnG1222" transform="matrix(1.0,0.0,0.0,1.0,10.0,36.7818540433925)"><text id="ProcessOnText1223" fill="#99ff99" font-size="32" x="150.77549581242107" y="32.8" font-family="微软雅黑" font-weight="bold" font-style="normal" text-decoration="none" family="微软雅黑" text-anchor="middle" size="32">Mapping Order</text></g></g><g id="ProcessOnG1224" transform="matrix(1.0,0.0,0.0,1.0,560.0,958.3333333333334)" opacity="1.0"><path id="ProcessOnPath1225" d="M0.0 4.0Q0.0 0.0 4.0 0.0L324.33333333333337 0.0Q328.33333333333337 0.0 328.33333333333337 4.0L328.33333333333337 356.82940611269294Q328.33333333333337 360.82940611269294 324.33333333333337 360.82940611269294L4.0 360.82940611269294Q0.0 360.82940611269294 0.0 356.82940611269294Z" stroke="#58b382" stroke-width="2.0" stroke-dasharray="none" opacity="1.0" fill="#ffffcc"/><g id="ProcessOnG1226" transform="matrix(1.0,0.0,0.0,1.0,10.0,40.41470305634647)"><text id="ProcessOnText1227" fill="#000000" font-size="28" x="153.16666666666669" y="28.700000000000003" font-family="微软雅黑" font-weight="normal" font-style="normal" text-decoration="none" family="微软雅黑" text-anchor="middle" size="28">MAPPING BLOCKS:</text><text id="ProcessOnText1228" fill="#000000" font-size="28" x="153.16666666666669" y="63.7" font-family="微软雅黑" font-weight="normal" font-style="normal" text-decoration="none" family="微软雅黑" text-anchor="middle" size="28"></text><text id="ProcessOnText1229" fill="#000000" font-size="28" x="153.16666666666669" y="98.7" font-family="微软雅黑" font-weight="normal" font-style="normal" text-decoration="none" family="微软雅黑" text-anchor="middle" size="28">miRNA, piRNA, Y_RNA</text><text id="ProcessOnText1230" fill="#000000" font-size="28" x="153.16666666666669" y="133.7" font-family="微软雅黑" font-weight="normal" font-style="normal" text-decoration="none" family="微软雅黑" text-anchor="middle" size="28">,</text><text id="ProcessOnText1231" fill="#000000" font-size="28" x="153.16666666666669" y="168.7" font-family="微软雅黑" font-weight="normal" font-style="normal" text-decoration="none" family="微软雅黑" text-anchor="middle" size="28">srpRNA, tRNA, snoRN</text><text id="ProcessOnText1232" fill="#000000" font-size="28" x="153.16666666666669" y="203.7" font-family="微软雅黑" font-weight="normal" font-style="normal" text-decoration="none" family="微软雅黑" text-anchor="middle" size="28">A, snRNA, vaultRNA, ln</text><text id="ProcessOnText1233" fill="#000000" font-size="28" x="153.16666666666669" y="238.7" font-family="微软雅黑" font-weight="normal" font-style="normal" text-decoration="none" family="微软雅黑" text-anchor="middle" size="28">cRNA, mRNA, tucpRN</text><text id="ProcessOnText1234" fill="#000000" font-size="28" x="153.16666666666669" y="273.7" font-family="微软雅黑" font-weight="normal" font-style="normal" text-decoration="none" family="微软雅黑" text-anchor="middle" size="28">A.</text></g></g><g id="ProcessOnG1235"><path id="ProcessOnPath1236" d="M560.0 1138.7480363896798L368.8352023354164 1138.7480363896798L368.8352023354164 1099.7045892751607" stroke="#323232" stroke-width="2.0" stroke-dasharray="none" fill="none" marker-end="url(#ProcessOnMarker1237)"/></g></g></g></svg>